<svg width="512" height="512" viewBox="0 0 512 512" fill="none" xmlns="http://www.w3.org/2000/svg">
<path d="M68.5959 28.1819C-18.1711 78.8519 17.5689 165.066 191.946 165.066L194.781 94.6329C123.711 108.633 25.6759 110.203 68.5969 28.1829L68.5959 28.1819ZM447.051 28.1819C489.971 110.204 391.937 108.632 320.866 94.6319L323.702 165.066C498.08 165.066 533.819 78.8529 447.052 28.1819H447.051ZM174.206 220.768C170.408 220.872 166.448 221.553 162.39 222.855C160.503 252.677 174.02 273.163 210.906 262.735C210.444 236.475 194.712 220.205 174.206 220.768ZM341.419 220.768C320.912 220.205 305.179 236.475 304.719 262.734C341.605 273.164 355.123 252.677 353.237 222.854C349.179 221.554 345.217 220.872 341.419 220.768ZM288.296 383.468L277.503 398.734C293.038 409.712 296.693 430.93 285.713 446.464C274.736 462 253.533 465.64 238 454.663C222.465 443.685 218.81 422.47 229.79 406.935C231.817 404.061 234.275 401.517 237.078 399.392L225.815 384.498C221.475 387.776 217.666 391.704 214.523 396.143C197.718 419.927 203.425 453.125 227.208 469.931C250.991 486.737 284.164 481.029 300.97 457.245C317.776 433.461 312.08 400.278 288.298 383.472L288.296 383.468Z" fill="black"/>
<path d="M268.453 418.96C267.007 424.592 258 421.73 255.2 420.958L257.767 411.058C260.66 411.875 269.947 413.056 268.453 418.96ZM253.94 426.045L251.14 436.99C254.593 437.853 265.28 441.169 266.867 434.992C268.547 428.543 257.393 426.863 253.94 426.045ZM303.267 436.491C297.013 460.834 271.72 475.64 246.707 469.554C221.693 463.468 206.494 438.853 212.733 414.509C214.216 408.723 216.855 403.279 220.499 398.486C224.144 393.693 228.724 389.646 233.976 386.575C239.228 383.505 245.05 381.472 251.11 380.591C257.17 379.711 263.349 380.002 269.293 381.446C294.26 387.532 309.473 412.148 303.267 436.491ZM268.313 407.56L270.413 399.385L265.28 398.25L263.227 406.107C261.873 405.789 260.52 405.471 259.12 405.199L261.173 397.16L256.087 395.979L253.987 404.109C252.867 403.836 251.747 403.609 250.72 403.337L243.673 401.611L242.273 406.925C242.273 406.925 246.1 407.788 246.007 407.833C248.107 408.333 248.48 409.604 248.387 410.74L242.647 433.13C242.413 433.766 241.667 434.583 240.313 434.356C240.36 434.402 236.58 433.448 236.58 433.448L234.06 439.125L240.687 440.76C241.947 441.078 243.16 441.396 244.373 441.668L242.227 449.934L247.36 451.206L249.46 442.985C250.86 443.349 252.213 443.667 253.52 444.03L251.42 452.16L256.553 453.431L258.7 445.165C267.333 446.755 273.96 446.119 276.667 438.444C279 432.313 276.667 428.679 272 426.363C275.36 425.5 277.88 423.456 278.58 419.005C279.513 412.965 274.753 409.74 268.313 407.56Z" fill="black"/>
</svg>
